<svg width="145" height="40" viewBox="0 0 145 40" fill="none" xmlns="http://www.w3.org/2000/svg">
<g clip-path="url(#clip0_1_58)">
<path d="M6.01259 0.374597C6.39911 0.278272 7.04332 0.171244 7.46205 0.11773C7.88078 0.0642166 8.86857 0.0107028 9.66309 0C10.5328 0 11.4776 0.0535139 12.0252 0.149839C12.5298 0.235461 13.2492 0.417408 13.6357 0.535139C14.0222 0.663572 14.6664 0.931141 15.0852 1.13449C15.5039 1.33785 16.1051 1.68033 16.4272 1.90509C16.7494 2.11915 17.3721 2.62218 17.8123 3.03959C18.2418 3.44629 18.8752 4.19549 19.2081 4.69852C19.5409 5.20155 19.9811 5.99355 20.1744 6.46447C20.3784 6.9354 20.6468 7.706 20.7864 8.17692C20.926 8.64784 22.1822 13.0253 23.5672 17.9164C24.963 22.7969 26.348 27.5703 26.6379 28.5122C26.9385 29.454 27.3036 30.428 27.4432 30.6741C27.5827 30.931 27.8619 31.2307 28.0444 31.3484C28.2377 31.4661 28.5598 31.5625 28.7423 31.5625C28.9356 31.5625 29.2684 31.4769 29.4832 31.3698C29.6979 31.2735 29.9448 31.0594 30.02 30.8882C30.1488 30.6527 30.1703 28.0627 30.1703 0.845519L38.9208 0.899033L38.953 15.2407C38.9745 25.2371 38.953 30.0534 38.8671 31.1344C38.7919 32.012 38.6309 33.1251 38.4806 33.703C38.341 34.2703 38.0081 35.1693 37.7183 35.7366C37.2995 36.5607 37.0311 36.9246 36.2903 37.6738C35.5494 38.4229 35.2058 38.6798 34.465 39.0437C33.9604 39.2792 33.1659 39.5788 32.6934 39.7073C32.1351 39.8571 31.3299 39.9534 30.385 39.9856C29.5476 40.0177 28.4202 39.9963 27.7009 39.9213C27.0244 39.8464 26.0044 39.6645 25.4461 39.5253C24.8878 39.3755 24.0181 39.0651 23.5135 38.8297C23.0089 38.5942 22.268 38.1447 21.8601 37.845C21.4413 37.5346 20.8508 36.9781 20.5287 36.5928C20.2173 36.2075 19.7664 35.5118 19.5409 35.0409C19.2403 34.4094 18.3169 31.3377 16.1051 23.5889C14.4409 17.7559 12.8519 12.2654 12.5942 11.3877C12.3151 10.4566 11.993 9.60039 11.8212 9.35422C11.6601 9.11876 11.3488 8.84049 11.134 8.73346C10.9086 8.63714 10.5542 8.55151 10.3288 8.55151C10.0926 8.55151 9.79193 8.63714 9.56646 8.78697C9.36246 8.92611 9.09404 9.22579 8.97593 9.46125C8.75052 9.88925 8.75046 9.92145 8.69682 38.9244L8.69678 38.9474H0L0.0322103 23.3427C0.0644206 9.18298 0.0858941 7.66318 0.257682 6.83907C0.354313 6.33604 0.536838 5.61896 0.654943 5.23365C0.783784 4.84836 1.06294 4.20619 1.27767 3.78878C1.49241 3.38208 1.93262 2.76131 2.25472 2.41883C2.57682 2.06563 3.08145 1.62682 3.38208 1.43417C3.67197 1.25222 4.23029 0.963249 4.61681 0.813411C5.00333 0.663572 5.62606 0.460219 6.01259 0.374597Z" fill="#2C2C2C"/>
<path d="M54.328 0.428111C54.7682 0.299678 55.4232 0.160542 55.7775 0.107028C56.1318 0.0428111 57.1518 0.0214055 58.0322 0.0428111C59.2133 0.0642166 59.8575 0.128433 60.448 0.288975C60.8882 0.406705 61.5217 0.599355 61.8438 0.727788C62.1659 0.845519 62.7993 1.1773 63.2395 1.46628C63.6797 1.75525 64.324 2.25828 64.6675 2.59007C65.0004 2.93256 65.5265 3.55332 65.8271 3.97073C66.1277 4.39884 66.5357 5.06241 66.729 5.44771C66.933 5.84371 68.3825 10.2747 70.1648 15.8829C71.8504 21.2343 73.5468 26.6071 73.9334 27.8165C74.3091 29.0259 74.7064 30.1925 74.9963 30.824L96.0404 30.7598L96.4913 30.5136C96.749 30.3852 97.157 30.0748 97.4039 29.8179C97.6509 29.5718 97.973 29.1008 98.1233 28.7798C98.2951 28.4052 98.4024 27.9235 98.4347 27.4419C98.4669 26.9496 98.4239 26.4894 98.3166 26.1041C98.2092 25.7188 97.9944 25.3335 97.6831 24.991C97.4254 24.702 97.0818 24.3916 96.8993 24.2953C96.6094 24.1455 95.7075 24.1133 89.1151 24.0598C82.4584 24.0063 81.5887 23.9849 81.0089 23.8137C80.6546 23.7173 79.9352 23.4177 79.3984 23.1608C78.8615 22.8932 78.0778 22.3795 77.6268 22.0049C77.1866 21.641 76.5102 20.9453 76.1237 20.4637C75.7371 19.9928 75.211 19.2222 74.9426 18.762C74.6742 18.291 74.2984 17.4883 74.1051 16.9532C73.9011 16.4181 73.6435 15.5297 73.5146 14.9732C73.3428 14.1598 73.2999 13.5818 73.2999 12.0299C73.2999 10.4887 73.3428 9.90006 73.5146 9.08665C73.6327 8.53011 73.8904 7.68459 74.0729 7.21367C74.2555 6.74275 74.5883 6.04707 74.803 5.67247C75.0285 5.29787 75.4795 4.67711 75.8016 4.29181C76.1237 3.90651 76.7034 3.32856 77.09 3.01818C77.4765 2.6971 78.271 2.20477 78.8615 1.9158C79.4735 1.60542 80.3754 1.26293 80.9552 1.12379C81.5135 0.973952 82.5765 0.813411 83.3173 0.738491C84.2407 0.652869 87.8804 0.631463 105.381 0.684977L105.435 8.8726L84.2299 8.92611L83.7468 9.20438C83.4783 9.36492 83.1348 9.6539 82.9845 9.84655C82.8341 10.0499 82.6087 10.4031 82.4906 10.6386C82.3617 10.874 82.2114 11.2807 82.1362 11.5483C82.0718 11.8159 82.0074 12.2975 82.0074 12.6186C81.9967 12.9397 82.0396 13.3785 82.0826 13.5818C82.1255 13.7852 82.2543 14.1491 82.3725 14.3845C82.4906 14.62 82.7375 14.9732 82.9308 15.1658C83.1133 15.3692 83.4569 15.626 83.6931 15.7545C84.1103 15.9891 84.2077 15.9899 97.8268 16.1064L97.973 16.1077L98.993 16.4073C99.5513 16.5679 100.357 16.8462 100.765 17.0281C101.173 17.2101 101.924 17.6275 102.429 17.9592C102.933 18.2803 103.706 18.9225 104.147 19.3613C104.598 19.8108 105.21 20.5707 105.521 21.0738C105.832 21.5768 106.219 22.3688 106.391 22.8397C106.562 23.3106 106.788 24.124 106.895 24.6592C107.013 25.2692 107.078 26.1469 107.078 27.0673C107.078 27.8593 107.024 28.8975 106.949 29.3684C106.874 29.8393 106.67 30.6848 106.487 31.2414C106.305 31.7979 105.94 32.6863 105.66 33.2214C105.392 33.7565 104.952 34.4736 104.694 34.8268C104.426 35.18 103.921 35.7794 103.567 36.154C103.202 36.5286 102.622 37.0423 102.268 37.2885C101.913 37.5453 101.269 37.9306 100.84 38.134C100.421 38.348 99.6694 38.6263 98.2951 39.0009H68.2321L66.278 32.9538C65.2044 29.6253 63.0785 23.0324 61.5539 18.3017C58.9985 10.3603 58.7516 9.6539 58.408 9.2793C58.1074 8.95822 57.9571 8.8833 57.6242 8.8726C57.4095 8.8726 57.0766 8.94752 56.9049 9.03314C56.7331 9.11876 56.4861 9.35422 56.3787 9.53617C56.2714 9.72882 54.4461 15.2836 52.3417 21.8765C50.2373 28.4694 48.1437 35.0302 46.866 39.0544H43.8597C42.2062 39.0544 40.1233 39.0223 37.6324 38.9153L38.6201 35.7473C39.157 34.0027 41.4439 26.682 43.6879 19.4683C45.9426 12.2547 47.9074 6.04707 48.0685 5.66177C48.2295 5.27647 48.5839 4.6236 48.863 4.21689C49.1314 3.79948 49.6683 3.17872 50.0441 2.81483C50.4198 2.45093 51.0211 1.98001 51.3754 1.75525C51.7297 1.5305 52.3525 1.18801 52.7712 0.995358C53.1899 0.802708 53.8878 0.545841 54.328 0.428111Z" fill="#2C2C2C"/>
<path d="M121.648 0.428111C121.916 0.353191 122.496 0.224758 122.936 0.149839C123.505 0.0428111 124.246 0.0107028 125.459 0.0428111C126.415 0.0642166 127.488 0.160542 127.875 0.246164C128.261 0.331786 128.841 0.50303 129.163 0.610058C129.485 0.727788 130.022 0.952547 130.344 1.11309C130.666 1.27363 131.225 1.60542 131.579 1.86228C131.933 2.10845 132.502 2.62218 132.857 2.99678C133.2 3.37137 133.673 4.01354 133.898 4.43095C134.134 4.83765 134.532 5.83301 134.789 6.62502C135.058 7.41702 136.164 10.9061 137.259 14.3845C138.343 17.8629 140.501 24.6913 142.047 29.5825C143.583 34.4629 144.882 38.6049 145 39.0651L136.335 39.0009L136.078 38.3052C135.949 37.9199 134.725 34.3345 133.372 30.3317C132.009 26.3288 129.861 19.9928 128.594 16.2575C127.327 12.5222 126.243 9.35422 126.168 9.21509C126.103 9.08665 125.91 8.90471 125.728 8.81908C125.545 8.73346 125.287 8.65854 125.137 8.65854C124.987 8.65854 124.718 8.78697 124.536 8.94752C124.246 9.21509 123.859 10.3068 120.574 20.2175C118.577 26.2539 116.354 32.9538 114.347 39.0544H105.22L105.274 38.8082C105.295 38.6798 107.593 31.2949 110.374 22.4116C113.155 13.5283 115.56 5.91863 115.721 5.50122C115.882 5.09452 116.236 4.42024 116.505 4.00284C116.773 3.59613 117.288 2.98607 117.632 2.65429C117.976 2.3225 118.555 1.87298 118.91 1.64823C119.264 1.41277 119.919 1.08098 120.359 0.899033C120.799 0.717086 121.379 0.50303 121.648 0.428111Z" fill="#2C2C2C"/>
</g>
<defs>
<clipPath id="clip0_1_58">
<rect width="145" height="40" fill="white"/>
</clipPath>
</defs>
</svg>
